<?xml version="1.0" encoding="utf-8"?>
<!-- Generator: Adobe Illustrator 25.3.1, SVG Export Plug-In . SVG Version: 6.00 Build 0)  -->
<svg version="1.1" id="Layer_1" xmlns="http://www.w3.org/2000/svg" xmlns:xlink="http://www.w3.org/1999/xlink" x="0px" y="0px"
	 viewBox="0 0 500 500" style="enable-background:new 0 0 500 500;" xml:space="preserve">
<style type="text/css">
	.st0{fill:#2EFDDB;}
</style>
<g>
	<path class="st0" d="M249.6,26.1L249.6,26.1c-0.7,0-1.3,0-2,0C126.5,26.3,26,128,26.3,249.9v0h446.5
		C473.8,129.7,373.8,26.4,249.6,26.1z M237.2,52.3v79.3h-63C182.5,100.4,210.2,57.9,237.2,52.3z M128.9,237.4H50.5
		c1.4-9.6,2.3-18.8,4-27.7c3.4-17.1,9.3-33.5,17-49.2c1.7-3.4,3.7-4.8,7.6-4.7c18.6,0.2,37.3,0.1,55.9,0.1c1.7,0,3.4,0.2,4.3,0.2
		C135.9,183.5,132.5,210.3,128.9,237.4z M145.6,131.7c-18.3,0.2-36.5,0.2-56.2,0.2c24.9-32.9,55.1-56.3,93.2-69.5
		c-6.9,11.6-14,22.6-20,34.1c-5.2,10.2-9,21.1-13.5,31.7C148.5,129.6,146.8,131.7,145.6,131.7z M237.3,237.4h-82.7
		c0-2.9-0.1-5.7,0-8.6c1.3-22.8,4.2-45.4,9.7-67.6c0.9-3.8,2.4-5.4,6.6-5.3c20.4,0.2,40.8,0.1,61.1,0.1c1.7,0,3.4,0.2,5.2,0.3V237.4
		z M261.9,51.1c6.7,3.7,13,6.5,18.4,10.5c16.3,12.2,26.9,29,35.7,47c3.5,7.3,6.5,14.9,10.2,23.2h-64.2V51.1z M261.8,237.4v-81
		c2-0.1,3.8-0.4,5.6-0.4c20.2,0,40.4,0.1,60.6-0.1c4,0,5.8,1.1,6.8,5.1c6,25,9.3,50.2,10,76.3H261.8z M349.8,128
		c-7.8-22.7-18-44.1-32.8-63.2c-0.4-0.5-0.5-1.1-0.8-1.9c24.4,3.1,76.5,41.5,92.7,68.5c-1.3,0.2-2.4,0.5-3.5,0.5
		c-16.5,0-33.1,0-49.6,0.1C352.6,132.1,350.9,131.3,349.8,128z M370.2,237.6c-3.5-27.1-6.9-53.9-10.4-81.1c0.6-0.1,1.9-0.4,3.2-0.4
		c19.2,0,38.3-0.1,57.5,0.1c2.1,0,5.3,1.5,6.2,3.2c12.3,23.2,19.2,48,21.4,74.2c0.1,1.2,0,2.3,0,4H370.2z"/>
</g>
</svg>
