<?xml version="1.0" encoding="utf-8"?>
<!-- Generator: Adobe Illustrator 25.3.1, SVG Export Plug-In . SVG Version: 6.00 Build 0)  -->
<svg version="1.1" id="Layer_1" xmlns="http://www.w3.org/2000/svg" xmlns:xlink="http://www.w3.org/1999/xlink" x="0px" y="0px"
	 viewBox="0 0 500 500" style="enable-background:new 0 0 500 500;" xml:space="preserve">
<style type="text/css">
	.st0{fill:#2EFDDB;}
</style>
<g>
	<path class="st0" d="M249.6,472.2L249.6,472.2c0.7,0,1.3,0,2,0c121.1-0.2,221.6-101.9,221.3-223.8v0H26.3
		C25.4,368.6,125.4,471.8,249.6,472.2z M261.9,446v-79.3h63C316.7,397.9,288.9,440.4,261.9,446z M370.2,260.8h78.4
		c-1.4,9.6-2.3,18.8-4,27.7c-3.4,17.1-9.3,33.5-17,49.2c-1.7,3.4-3.7,4.8-7.6,4.7c-18.6-0.2-37.3-0.1-55.9-0.1
		c-1.7,0-3.4-0.2-4.3-0.2C363.3,314.8,366.7,288,370.2,260.8z M353.6,366.6c18.3-0.2,36.5-0.2,56.2-0.2
		c-24.9,32.9-55.1,56.3-93.2,69.5c6.9-11.6,14-22.6,20-34.1c5.2-10.2,9-21.1,13.5-31.7C350.7,368.7,352.4,366.6,353.6,366.6z
		 M261.9,260.9h82.7c0,2.9,0.1,5.7,0,8.6c-1.3,22.8-4.2,45.4-9.7,67.6c-0.9,3.8-2.4,5.4-6.6,5.3c-20.4-0.2-40.8-0.1-61.1-0.1
		c-1.7,0-3.4-0.2-5.2-0.3V260.9z M237.3,447.2c-6.7-3.7-13-6.5-18.4-10.5c-16.3-12.2-26.9-29-35.7-47c-3.5-7.3-6.5-14.9-10.2-23.2
		h64.2V447.2z M237.4,260.9v81c-2,0.1-3.8,0.4-5.6,0.4c-20.2,0-40.4-0.1-60.6,0.1c-4,0-5.8-1.1-6.8-5.1c-6-25-9.3-50.2-10-76.3
		H237.4z M149.4,370.3c7.8,22.7,18,44.1,32.8,63.2c0.4,0.5,0.5,1.1,0.8,1.9c-24.4-3.1-76.5-41.5-92.7-68.5c1.3-0.2,2.4-0.5,3.5-0.5
		c16.5,0,33.1,0,49.6-0.1C146.6,366.2,148.3,367,149.4,370.3z M129,260.7c3.5,27.1,6.9,53.9,10.4,81.1c-0.6,0.1-1.9,0.4-3.2,0.4
		c-19.2,0-38.3,0.1-57.5-0.1c-2.1,0-5.3-1.5-6.2-3.2c-12.3-23.2-19.2-48-21.4-74.2c-0.1-1.2,0-2.3,0-4H129z"/>
</g>
</svg>
