<?xml version="1.0" encoding="utf-8"?>
<!-- Generator: Adobe Illustrator 27.3.1, SVG Export Plug-In . SVG Version: 6.00 Build 0)  -->
<svg version="1.1" id="Layer_2_00000015357107844268312570000013643727401043337367_"
	 xmlns="http://www.w3.org/2000/svg" xmlns:xlink="http://www.w3.org/1999/xlink" x="0px" y="0px" viewBox="0 0 500 500"
	 style="enable-background:new 0 0 500 500;" xml:space="preserve">
<style type="text/css">
	.st0{fill:none;}
	.st1{fill:#419C46;}
	.st2{fill:#010101;}
	.st3{fill:#BD1F34;}
	.st4{fill:#FFFFFF;}
</style>
<g>
	<path class="st0" d="M167.5,338V159.1h-0.2V14c0,0,0,0-0.1,0v324H167.5z"/>
	<path class="st1" d="M167.5,159.1H483C446.6,66,356,0,250,0c-29,0-56.8,4.9-82.7,14v145.1H167.5z"/>
	<path class="st2" d="M167.3,338v148c25.9,9.1,53.7,14,82.7,14c107.1,0,198.4-67.4,234.1-162H167.5H167.3z"/>
	<path class="st3" d="M0,250c0,109.1,69.9,201.8,167.3,236V338V14C69.9,48.2,0,140.9,0,250z"/>
	<path class="st4" d="M167.5,338h316.5c10.3-27.4,15.9-57,15.9-88c0-32.1-6-62.7-17-90.9H167.5V338z"/>
</g>
</svg>
