<?xml version="1.0" encoding="utf-8"?>
<!-- Generator: Adobe Illustrator 28.1.0, SVG Export Plug-In . SVG Version: 6.00 Build 0)  -->
<svg version="1.1" id="Layer_1" xmlns="http://www.w3.org/2000/svg" xmlns:xlink="http://www.w3.org/1999/xlink" x="0px" y="0px"
	 viewBox="0 0 2000 2000" style="enable-background:new 0 0 2000 2000;" xml:space="preserve">
<style type="text/css">
	.st0{clip-path:url(#SVGID_00000093892819630795227760000013855060359940790458_);}
	.st1{fill:#005430;}
	.st2{fill:#FFFFFF;}
</style>
<g>
	<defs>
		<circle id="SVGID_1_" cx="1000" cy="1000" r="988.9"/>
	</defs>
	<clipPath id="SVGID_00000147216592394667851630000003983219695352563089_">
		<use xlink:href="#SVGID_1_"  style="overflow:visible;"/>
	</clipPath>
	<g style="clip-path:url(#SVGID_00000147216592394667851630000003983219695352563089_);">
		<path id="green" class="st1" d="M-491.4,1999.8h2999.2V0.2H-491.4V1999.8z"/>
		<g id="white" transform="scale(.375)">
			<g id="shahada">
				<g transform="matrix(7.3042,0,0,-6.7531,1800,635.53)">
					<path class="st2" d="M395.4-219.6c-0.1,13.9-5.1,51.2-6.3,63.8c-1.3,12.5-2.5,23.9-2.2,26.6c0.3,2.6,4-3.6,5.9-4.1
						c1,0.2,0.6,4.1-1.3,7.4c-1.2,2.2-5.4,10.7-8,15.6c-1.2,2.3-1.5,3.7-2,4c-0.6,0.3-5.2-9.8-4.7-10.9c1.3-2.1,2.1-3,2.3-6.7
						c0.2-3.6,1.9-29.5,4.1-49.1c1.7-14.8,5.3-46.7,5.4-66.5c0-6.5-0.6-12.6-1.4-15.2c-2-4-5.2-7.7-17.1-15.2
						c-13.4-8.5-31.2-15.5-38.9-20.2c-4.8-2.9-3.2-3.3,1-2c4.1,1.3,25.5,5.4,35.9,10.2c9.8,4.5,16.1,12,20.9,22.9
						C395-245.8,395.5-234.3,395.4-219.6"/>
				</g>
				<g transform="matrix(7.3042,0,0,-6.7531,1709.3,422.03)">
					<path class="st2" d="M366.4-145.9c1,0.4,9.6,0.9,11.9,0.4c-1.5-2.3-11.8-7.5-11.8-8.5c0.3-0.6,7.1,1.2,9.2,2.2
						c1.4,0.9,2.3,2.3,3.4,3.5c2.5,3.1,5.4,8.7,4.6,9.4c-1.2,1.1-12.9,0.4-14.4,0.2c-1-0.2-3.6-5.2-4.1-6.5
						C364.8-146.4,365.4-146.3,366.4-145.9"/>
				</g>
				<g transform="matrix(7.3042,0,0,-6.7531,1747.6,588.62)">
					<path class="st2" d="M378.7-203.4c1.8,6.5,2.2,14.5-0.2,22.8c-2.5,8.6-8.7,13.8-13.2,16.5l-0.8-8.3c0,0,6.3-3.4,10.5-11.8
						c2.7-5.4,3.8-13,1.7-21.5C376.4-207.8,377.8-206.6,378.7-203.4"/>
				</g>
				<g transform="matrix(7.3042,0,0,-6.7531,1602.4,672.64)">
					<path class="st2" d="M332.3-232.4c1.6,5.9,2,13-0.2,20.5c-2.2,7.7-7.8,12.5-11.8,14.9l-0.7-7.4c0,0,5.6-3,9.5-10.7
						c2.4-4.8,3.5-11.7,1.5-19.3C330.3-236.3,331.5-235.3,332.3-232.4"/>
				</g>
				<g transform="matrix(7.3042,0,0,-6.7531,1098.3,444.51)">
					<path class="st2" d="M171.3-153.6c2.6-5.1,3.6-12.3,1.6-20.4c-0.3-2,1-0.9,1.8,2.1c1.7,6.2,2.1,13.7-0.2,21.7
						c-2.4,8.2-8.3,13.1-12.5,15.7l-0.7-7.9C161.3-142.4,167.2-145.6,171.3-153.6"/>
				</g>
				<g transform="matrix(7.3042,0,0,-6.7531,758,449.86)">
					<path class="st2" d="M62.6-155.5c2.2-5.5,2.3-12.9-1.2-20.7c-0.7-2,1-1,2.4,1.9c2.8,6,4.4,13.5,3,21.8
						C65.3-144,59.4-138.1,55-135l-2-7.8C53-142.8,59.2-146.8,62.6-155.5"/>
				</g>
				<g transform="matrix(7.3042,0,0,-6.7531,852.07,698.62)">
					<path class="st2" d="M92.7-241.4c2.8,5.5,3.9,9.2,5.1,15.8c1.1,5.8,1.1,12.4,0.8,19.2c8.2,3.6,18.1,9.7,21.4,10.1
						c-2.3-8.4,3.1-17.4,14-16.2c0.8-9.5,1.5-17.8,2-22.7c0.9-10.1,0.8-22.9,0.7-25.1c0-2.2,1.5-1.8,3,3.2c2,6.6,2.7,24,1.9,35.4
						c-0.2,2.9-0.5,6.7-0.8,11.1c7.1,3.5,8.2,10.3,10.9,13.2c2.4-9,15.5-10.2,19.5-8.3c5,2.4,6.7,6.7,7.9,16.7
						c1.3,10-2.5,14-3.8,15.1c-0.1-1.2-3.4-13-3.4-13s3.1-3.6,3.3-5.3c-2.5-2.5-7.9-2.6-12.4-1.1c-4.5,1.6-5.9,4.5-5.6,6.4
						c0.3,2,1.9,3.7,2,6.1c0,2.4-1,1.7-2.8-0.4c-1.8-2.1-3-4-5.4-8.5c-2-3.7-5.3-8.2-11.2-9.5c-1,10.9-2.1,22.5-2.8,29.8
						c-0.4,3.8-4.2,37-4.5,40.8c-0.2,3.2-0.7,7.1-0.6,8.8c0.1,1.4,0.9,0.9,2.2-0.6c1.3-1.5,3.5-4.1,3.9-3.9c1.3,0.7,0,5-1.7,8.9
						c-1.7,3.9-7.5,19.2-8.8,19.8c-0.6,0.3-4.6-9.1-4.8-10.9c0.6-1.2,2.2-3,2.3-8.2c0-1.4,0.9-15.1,2.1-28c1-11.4,2.4-22.2,2.6-23.4
						c0.9-8.7,2.1-20.9,3.2-33c-6.3,1.3-8,5.8-7.9,8.4c0.2,2.9,1.4,6.2,0.8,6.9c-1.2,0.8-8.5-3.6-18.5-8.3c-2.8-1.3-6-2.7-9.4-4.1
						c-0.9,8.2-2,16-2.5,22l-0.1,0.7c6.6,0.5,12.1,4.1,14.5,7.5c3.1,4.3,5.2,13.2,5.5,20c0.2,6.8-4.9,19.3-6.1,23.2
						c-1.2,4-1.8,6.7-2,8.1c-0.1,1.4,2.7-1.6,4.5-2.2c1.2-0.3,0.8,2.6-0.7,4.5c-1.5,1.9-9.5,15.1-10,14.1
						c-0.3-0.5-3.5-10.2-3.8-11.7c1.3-0.9,2.7-3.4,2.8-5.8c0.1-2.4,1.9-12.8,3.8-18.6c2-5.8,6.1-16.9,6.4-20
						c-3-2.3-9.8-6.1-16.5-5.9c-1.1,10.2-2.6,22-3.4,30.3c-0.3,3.2-0.3,6.7-0.3,8.5c0,1.4,1,1.2,2.3-0.2c1.3-1.5,3.3-3.6,3.7-3.4
						c0.9,0.3,0.1,3.6-1.7,7.4c-1.8,3.8-8.9,20.1-10.1,20.7c-0.6,0.3-3.8-8.8-4-10.7c0.6-1.2,2.3-2.9,2.4-8.1
						c0.1-4.1,2-24.4,3.6-42.2c-6.6,3.7-8.9,9-9.7,17.9c-0.6,6.2-0.6,17.6-2.7,27.2c-1.2,5.4-3.6,10.9-6.5,13.8
						c-0.7-1.8-3.8-12.8-3.8-12.8c1-3.2,4.1-13.8,4-23.1c-0.1-9.2-0.8-18.3-10.3-24.5c-9.6-6.2-23.9-3.7-27.5,6
						c-3.5,9.7,4.3,34.1,4.2,39.8c-0.1,5.8-1.1,6.5-3.3,5.6c-2.2-0.9-6.8-6.5-10.7-15.5c-3.9-9-5.7-20.2-7.9-27.8
						c-2.2-7.6-5.8-15.3-11.3-14.9c-5.5,0.4-8.4,5.9-10.1,13.7c-1.7,7.9-0.7,18.2-0.2,20.9c1.1,6.7-1.5,5.3-3.1-5.2
						c-1-6.4-2-16.7,1.5-27.5C-7.3-175-1.3-179,4-177.7c5.3,1.4,9.9,14.8,11.6,20.8c1.6,6,9,32.7,13.1,34c0.6-3-3.2-12.7-4.4-24.1
						c-1.2-11.3,1.6-26.6,14.9-29.2c13.3-2.6,22.4,6.7,25.6,13.2c3.3,6.5,4.8,13.3,5.2,16.7c0.4-8.7,5.9-22.3,16.6-26.2l1.1-0.3
						c0.7-7.1,1.7-16.4,2.7-26.2c-2.1-0.7-4.2-1.3-6.3-1.9c-0.3,0.9-0.6,1.9-0.9,2.7c-3.3,7.6-8.6,14.6-16.1,14.1
						c-7.6-0.5-15.9-11.5-15.6-19.5c0.2-5.4,3-9.8,13-11c4.6-0.5,9.4,0,14.4,1.2c0.7-2.2,1.2-4.5,1.2-6.5
						c-3.2-4-29.4-25.4-49.1-27.5c-19.7-2.1-25.7,9.1-25.8,20.3c-0.1,8.5,4.6,17,7.9,22.9c4.8,3.8,8.7,8.5,11.1,12.1
						c0.7-0.4,1.3-0.9,1.9-1.2c2.3-1.5,3.3-3.7,3.3-3.7c0.4,0.7,2.5,4.7,1.7,6.6c-0.4,0.5-2.1,1.7-4.3,3.1c2.2,6,2.2,12.1-0.7,13.4
						c-3.2,1.5-7.5-2.7-9.3-5.2c-0.9-1.3-1.3-2.8-1.3-4.1c0-1.6,0.7-3.1,2.4-4.4c1.7-1.3,3.3-2.4,4.9-3.5
						c-4.3-4.9-14.4-12-20.7-16.2c-0.2,0.6-1.1,0-2.4-1.6l-1.7-1.1c-5-3.3-16.8-10.5-19.2-12.2c-2.3-1.8-0.9-1.4,0-1.1
						c1.6,1,3.8,2.1,6.2,3.4c3.4,1.8,7.5,3.9,11.4,6c-1.2-2.1-2.4-4.6-3.4-7.3c-4.7-11.9-12.2-36.7,4.1-51.6
						c15.6-14.3,42.5-8.8,64.8,6C84.4-252,89.2-246.8,92.7-241.4 M20-182.5c-0.8,0.6-0.9,1.4-0.2,2c0.8,0.7,1.8,1.4,3,1.7
						c2.5,0.5,3.5-2.6,2.5-7.4C23.3-185,21.4-183.7,20-182.5 M71.1-202.7c-11.4-0.1-11.9,2.2-11.7,3.6c0.2,1.4,3.7,5.3,8.2,2.7
						c1.9-1.1,4-3.4,6-6.2C72.8-202.7,72-202.7,71.1-202.7 M36.4-267.3c-21.5-6.3-42.4,3.5-43.6,22.9c-1,14.8,4,26,7.3,32.3
						c3.1,1.6,6,3.2,8.4,4.7c-5.6-9.8-8.9-22.9-6.7-34c2.5-12.6,12.6-20.2,29.7-17.7c16.9,2.4,39.9,19.9,46.4,26.4
						c2,2.4,3.3,4.5,5.1,8.9c0.7,1.8,1.8,4.2,2.1,6.8c0.2,1.7,0.4,3.6,0.4,5.5c2,0.6,4,1.4,6,2.1c0.7-8,1.2-15.8,1.2-22.6
						C82-245.3,57.8-261,36.4-267.3"/>
				</g>
				<g transform="matrix(7.3042,0,0,-6.7531,1551,647.88)">
					<path class="st2" d="M315.9-223.9c-0.7,13-2.5,36.5-3.5,48.5c-0.9,10.6-2.6,25.2-3.8,38c-0.3,3.2-0.3,6.3-0.3,8.1
						c0,1.4,1.3,0.9,2.7-0.6c1.3-1.5,3.4-3.3,3.8-3.1c1.3,0.7-0.3,4.3-2.1,8.1c-1.8,3.8-9,19.7-10.2,20.3c-0.6,0.3-4-9.2-4.2-11.1
						c0.6-1.1,2.3-2.9,2.5-8.1c0.2-5.2,2.6-29,4.4-48.3c1.2-13.4,2.8-35.3,3.9-51.8c-0.1,0,1.1-15.7,1.2-17.4
						c0.7-10.1,0.3-22.9,0.3-25.1c-0.1-2.2,1.4-1.8,3,3.1c1.6,5,2.6,16.3,2.7,26.4L315.9-223.9z"/>
				</g>
				<g transform="matrix(7.3042,0,0,-6.7531,1417.5,555.68)">
					<path class="st2" d="M273.2-192c-2.2-0.7-5.7,1.8-5.4,7.1c0.2,4.8,2.1,9.2,2.9,12c1,3.9,1,7.6,0.2,5.5
						c-1.9-4.7-5.5-13.9-6.2-20.1c-0.7-6.2,1.1-10.2,3.7-11.6c3.2-1.7,5.4,1,7,5c1.5,3.8,1.2,8.3,0.2,7.3
						C274.6-188,274.3-191.7,273.2-192"/>
				</g>
				<g transform="matrix(7.3042,0,0,-6.7531,1348.2,594.54)">
					<path class="st2" d="M251.1-205.5c1.2,3.4,1.4,6.6,0.5,4.8c-2-4-5.8-11.8-6.9-17.3c-1.1-5.4,0.2-9.1,2.4-10.5
						c2.7-1.7,4.8,0.5,6.5,3.9c1.6,3.3,1.7,7.2,0.7,6.4c-0.8-0.9-1.4-4.1-2.4-4.4c-2-0.5-4.8,2-4.2,6.6
						C248.3-211.7,250.3-207.9,251.1-205.5"/>
				</g>
				<g transform="matrix(7.3042,0,0,-6.7531,1146.4,737.86)">
					<path class="st2" d="M186.7-255c1.9,3.4,2.9,7,1.6,5.2c-3-4-8.7-11.8-11-17.5c-2.3-5.7-1.6-10,0.5-11.9c2.6-2.4,5.4-0.4,7.9,3
						c2.4,3.3,3.3,7.6,2,6.8c-1.1-0.8-2.3-4.2-3.5-4.3c-2.3-0.1-4.9,3.1-3.3,8.1C182.3-261.2,185.3-257.4,186.7-255"/>
				</g>
				<g transform="matrix(7.3042,0,0,-6.7531,1500.2,535.46)">
					<path class="st2" d="M299.7-185c-2.2-0.6-5.5,2.1-5,7.4c0.5,4.7,2.6,9.1,3.5,11.9c1.2,3.8,1.4,7.6,0.5,5.5
						c-2.2-4.6-6.2-13.6-7.3-19.8c-1.1-6.2,0.6-10.3,3-11.8c3.1-1.9,5.5,0.7,7.2,4.6c1.7,3.8,1.7,8.2,0.6,7.2
						C301.3-181.1,300.7-184.8,299.7-185"/>
				</g>
				<g transform="matrix(7.3042,0,0,-6.7531,1498.7,666.11)">
					<path class="st2" d="M299.2-230.2c3.1-1.9,5.5,0.7,7.2,4.6c1.7,3.8,1.7,8.2,0.6,7.2c-0.9-1.1-1.4-4.7-2.5-5
						c-2.2-0.6-5.5,2.1-5,7.4c0.5,4.7,2.6,9.1,3.5,11.9c1.2,3.8,1.4,7.6,0.5,5.5c-2.2-4.6-6.2-13.6-7.3-19.8
						C295.1-224.6,296.7-228.7,299.2-230.2"/>
				</g>
				<g transform="matrix(7.3042,0,0,-6.7531,1584.4,499.22)">
					<path class="st2" d="M326.5-172.5c1.5,4.6,1.7,9.2,0.6,6.7c-2.6-5.6-7.5-16.4-8.8-23.9c-1.3-7.5,0.7-12.4,3.7-14.3
						c3.7-2.3,6.6,0.9,8.8,5.6c2,4.5,2,10,0.7,8.8c-1.1-1.3-1.7-5.7-3.1-6.1c-2.7-0.7-6.7,2.5-6,8.9
						C322.9-181.1,325.5-175.9,326.5-172.5"/>
				</g>
				<g transform="matrix(7.3042,0,0,-6.7531,899.52,661.58)">
					<path class="st2" d="M107.8-228.6c2.4,5.6,3.3,11.3,1.5,8.3c-4-6.7-11.4-19.8-14-29c-2.6-9.2-0.7-15.7,2.9-18.4
						c4.4-3.3,8.4,0.3,11.7,6c3.1,5.5,3.7,12.3,1.9,10.9c-1.5-1.5-2.9-7-4.6-7.3c-3.5-0.6-8.1,4-6.5,11.9
						C102.2-239,106.1-232.7,107.8-228.6"/>
				</g>
				<g transform="matrix(7.3042,0,0,-6.7531,1639,775)">
					<path class="st2" d="M344-267.8c1.8,1.6,17.9,11,20.9,12.9c0,0,3,5.3,2.1,5.9c-0.9,0.6-6.8-5.2-10.4-5.4
						c-3.6-0.2-8.6,2.7-8.8,5.1c0.5,1.8,4.9,4.5,6.4,4.6c1.6,0.1,1.3-3.8,1.9-4.3c0.5-0.5,2.6,2.7,2.9,4c0.3,1.3,0,6.8-2.9,6
						c-4.6-1.3-11.5-10.5-12.3-13.4c-0.8-2.9,3.5-5.4,6.6-6.8c-0.3-0.1-2.6-1.3-4.1-2.9C346.3-262,344.7-263.9,344-267.8"/>
				</g>
				<g transform="matrix(7.3042,0,0,-6.7531,1519,798.48)">
					<path class="st2" d="M305.7-275.9c1.8,1.6,17.9,11,20.9,12.9c0,0,3,5.3,2.1,5.9c-0.9,0.6-6.8-5.2-10.4-5.4
						c-3.6-0.2-8.6,2.7-8.8,5.1c0.5,1.8,4.9,4.5,6.4,4.6c1.6,0.1,1.3-3.8,1.9-4.3c0.5-0.5,2.6,2.7,2.9,4c0.3,1.3,0,6.8-2.9,6
						c-4.6-1.3-11.5-10.5-12.3-13.4c-0.8-2.9,3.5-5.4,6.6-6.8c-0.3-0.1-2.6-1.3-4.1-2.9C308-270.1,306.4-272,305.7-275.9"/>
				</g>
				<g transform="matrix(7.3042,0,0,-6.7531,1248.7,458.72)">
					<path class="st2" d="M219.3-158.5c1.4-1.8,10.9-14.8,18.3-22.9c7.4-8.2,20-21.4,29.3-30.4c1.8-1.8,3.7-3.7,5.7-5.6
						c2.3-19.5,5.1-44.3,6.2-54.5c1.1-10.1,1.3-22.8,1.3-25.1c0-2.2,1.5-1.8,2.9,3.2c1.9,6.7,2.1,24,1.1,35.5
						c-0.6,7.1-2.1,20.3-3.5,32.5c5.5-5.9,10.7-11.7,14.2-16c6.4-8,11.8-14,15.1-22.6c2.3-6.1,2.1-10.9,3.1-11.9
						c0.8-0.8,1.7,6.5,0.7,13.5c-1.7,11.5-3.9,16.3-17.5,32.7c-5.2,6.3-11.3,12.8-17.3,18.9c-0.2,1.9-0.4,3.6-0.6,5.2
						c-0.5,3.8-5.1,36.9-5.4,40.6c-0.3,3.2-0.9,7-0.8,8.8c0,1.4,0.9,0.9,2.2-0.6c1.3-1.5,3.6-4,4-3.8c1.3,0.7-0.1,5-1.9,8.8
						c-1.8,3.8-8,19-9.2,19.6c-0.6,0.3-4.3-9.2-4.5-11.1c0.6-1.1,2.3-2.9,2.5-8.1c0-1.4,1.2-15.1,2.7-27.9c1.3-11.4,3-22.1,3.1-23.4
						l0-0.1c-6.2,6.1-11.6,11.2-14.9,14.5c-7.7,7.6-24.7,25.5-25.4,28.2c-0.2,0.8,1.2,0.3,3.6-0.1c2.4-0.4,4.6-1.3,4.2,0
						c-0.2,0.6-1.1,2.1-3.4,3.7c-2.3,1.6-8.3,5.6-12.7,8.4c-4.4,2.8-6.6,5.2-7.6,4.6c-0.5-0.3,0-10.1,0.2-11.3
						C216-155.3,217.9-156.7,219.3-158.5"/>
				</g>
				<g transform="matrix(7.3042,0,0,-6.7531,1275.3,423.15)">
					<path class="st2" d="M227.8-146.3c1.8,0.4,10.5,0.2,13.6-0.5c-1.3-1-10.2-5.8-11.9-7c-1.7-1.2-2.2-1.8-1.3-1.7
						c2.5,0.8,8.2,1.7,11,3.2c2.6,1.3,7,7.7,8.7,10.1c1.7,2.4,1.7,3.6,1.3,4.2c-1.7,1-13,2.1-18.4,0.6c-1.5-1.1-4.4-7-4.9-8.2
						C225.4-146.8,226-146.7,227.8-146.3"/>
				</g>
				<g transform="matrix(7.3042,0,0,-6.7531,1380.6,421.6)">
					<path class="st2" d="M261.5-145.7c1.5,0.3,8.4,0.2,11-0.4c-1.1-0.8-8.2-4.7-9.6-5.6c-1.4-0.9-1.8-1.5-1.1-1.4
						c2,0.6,6.6,1.4,8.8,2.6c2.1,1.1,5.6,6.2,7,8.1c1.4,1.9,1.4,2.9,1,3.4c-1.4,0.8-10.5,1.7-14.8,0.5c-1.2-0.9-3.6-5.6-3.9-6.6
						C259.5-146.1,260-146.1,261.5-145.7"/>
				</g>
				<g transform="matrix(7.3042,0,0,-6.7531,1466.2,420.5)">
					<path class="st2" d="M288.8-145.3c1.5,0.3,8.4,0.2,11-0.4c-1-0.8-8.2-4.7-9.6-5.6c-1.4-0.9-1.8-1.5-1-1.4c2,0.6,7,1.4,9.2,2.6
						c2.1,1.1,4.5,6.2,5.9,8.1c1.4,1.9,1.4,2.9,1,3.4c-1.4,0.8-9.8,1.7-14.1,0.5c-1.2-0.9-3.6-5.6-3.9-6.6S287.3-145.7,288.8-145.3"
						/>
				</g>
				<g transform="matrix(7.3042,0,0,-6.7531,1412.8,462.19)">
					<path class="st2" d="M271.7-159.7c-2.3-3.9,0.6-7.1,1.6-10.3c-1.4-1.4-3.6-0.1-4.4,1.1c-1.6,2.5-1,7.7-2.9,8.5
						c-0.5-1.4-0.8-2.9-0.8-2.9s1.4-3.5,1-5.9c-0.2-1.4-1.4-3.1-2.9-3.1c-4.1-0.1-2.1,6.4-3.6,10.1c-0.3-0.9-0.5-1.9-0.9-2.7
						c0.3-1,0.4-2.3,0.5-3.1c0.1-1.5,0-3.2,0.2-4.5c0.3-1.9,1.3-3.1,2.8-3.2c3-0.3,4.4,2.4,4.9,4.6c0.5-2.2,4.5-4.7,6.5-1.9
						c2.6,3.6,0.5,6.7-0.8,10.1C272-160.6,272.3-159,271.7-159.7"/>
				</g>
				<g transform="matrix(7.3042,0,0,-6.7531,1163.1,441.02)">
					<path class="st2" d="M192-152.4c0.2-1.6,1-2.7,2.2-2.9c2.6-0.4,3.9,1.9,4.4,3.7c0.3-1.9,3.7-4.2,5.5-2c2.4,3,0.7,5.7-0.3,8.7
						c-0.7,2.2-0.4,3.6-0.9,3c-2.2-3.3,0.2-6.2,1-9c-1.3-1.1-3.1,0.1-3.7,1.1c-1.2,2.3-0.6,6.7-2.1,7.5c-0.5-1.2-0.8-2.5-0.8-2.5
						s1-3.1,0.6-5.1c-0.2-1.2-1.3-2.6-2.6-2.5c-3.5,0.1-1.5,5.6-2.7,8.8c-0.3-0.8-0.6-1.6-0.9-2.3c0.2-0.8,0.3-2,0.3-2.7
						C192-149.9,191.9-151.3,192-152.4"/>
				</g>
				<g transform="matrix(7.3042,0,0,-6.7531,1344.4,750.3)">
					<path class="st2" d="M249.9-259.3c0.4,0.7,1.2,2.5,1,3.8c-0.2,1.3-1.6,6.5-4.4,7.8c-2.7,1.3-4.8-1.4-6.1-5.3l-0.9,0
						c-0.2-0.6-0.5-1.4-0.7-2.9c-0.3-2.2-0.9-3.6-4.4-7.1c-2.9-2.9-12.5-9.8-18.7-13c-6.2-3.3-10.6-6.1-12.3-6.9
						c-1.6-0.8-1.2-1.2,0.5-0.6c1.6,0.5,9.9,3.4,13.1,4.8c3.3,1.5,7.3,3.9,12.1,7.3c5.4,3.8,8.6,7.5,9.6,10.9c0.8,2.4,1,3.3,1,3.3
						s2-1.3,5.4-2.1C248.5-260.2,249.5-259.9,249.9-259.3 M245.3-251.8c1.5-0.6,2.4-2.4,2.7-3.5c-1.7,0-4.9,0.9-6.3,1.6
						C242.5-252,243.9-251.3,245.3-251.8"/>
				</g>
				<g transform="matrix(7.3042,0,0,-6.7531,1264.9,757.77)">
					<path class="st2" d="M224.5-261.8c-4.8,0.7-16.7,2.7-19.7,10.2c2.5,3.9,13.8,8.8,28,13.4c14.2,4.6,29,10.5,33,13.4
						c0.9,0.3,2.6,0.2,2.6,0.2c0.7,2.2,4.3,10,4.5,11.7c-4-0.2-28.4-2.2-39.3-2.8c-10.9-0.6-31.8-0.5-38.8-0.4
						c4.3,3.3,14.4,9.8,28.9,15.4c1.9,0.7,3.6,1.4,5.2,2c1.2-2.3,2.1-4.6,2.3-6.6c0.9,1,1.6,4.4,1.4,7.9c8.5,2.9,12.8,3.9,14.7,4.4
						c1.2,1.7,3.3,8.4,3.6,13.3c-1.3,2.5-5.2,5.6-8.7,8.3c-4.8,3.7-10.1,6.9-15.3,5.5c-7.1-1.9-8.6-16.1-6.9-19.1
						c0.5-0.9,1.8-2.6,3.3-4.7c-5.2-2.2-10.7-4.8-15.5-7.6c-10.7-6.1-22.7-12.8-26.1-19.2l-1-0.5c-0.3-0.6-2.5-10.5-2.8-11.6
						c2.2,0.1,18.8,0,30.4,0.4c11.6,0.4,21.7,0.8,25.7,0.8c-5.9-1.5-21.2-7.7-25.7-11.3c-4.4-3.6-7.2-9.2-7.3-18.7
						c-4.1,1.7-11.8,5.7-18.3,15.3c-7.3,10.6-5.8,21.6-8.7,36c-4.2,20.8-13.3,38.5-18.9,43.8c-1.9-7.4-2.1-12.9-2.1-12.9
						s7.1-16.9,10.6-27.6c3.6-10.8,6.6-21.4,6.5-23.8c-2.9-7-20.3-21.6-34.8-30.1c-13.7-8.1-25.9-9-30.2-3.2c-0.8,1.1-1.4,2.5-1.7,4
						c1.9,0.9,3.7,1.9,5.7,2.8c12.4,6.1,34.3,18.9,39.5,25.6c5.6,8.2,5.5,19.6,2.2,26.2c-3.2,6.6-8.3,14.2-8.7,16.9
						c-0.3,1.3,3.3-0.5,5.4-0.6c1,0.1,0.5,1.6-1.7,4c-1.8,1.9-8.6,8-11.2,10.4c-0.7,0.6-1.1,0.4-1.3-0.3c-0.5-2.5-1.6-7.7-2-10.3
						l0.3-1.3c0.8-0.5,1.6-1,2-2.4c0.6-1.9,2.7-7.3,6.1-14.1c3.4-6.8,8.3-14.2,8.8-18c-4-5.5-24.2-17.3-43.9-27
						c1.2,4.1,3.1,8.7,5.7,13.8c0.7,0.9,1.4,1.9,2,3.1c2,3.9,2.2,8.6,1,7.6c-1-1.1-1.8-4.9-2.9-5.2c-2.4-0.5-5.7,2.5-4.9,8
						c0.8,5,3.2,9.5,4.3,12.3c1.5,4,1.9,7.9,0.8,5.8c-2.5-4.8-7.2-14-8.7-20.5c-1.4-6.5,0.1-10.9,2.6-12.6c0.9-0.6,1.8-0.9,2.7-0.7
						c-1.7-3.6-3.9-7.9-5.4-13.1c-7.9-3.8-15.6-7.3-22-9.7c-22.9-8.9-39.2-14.1-50.6-18l-0.4-0.2c0.8,2.9,0.7,5.4-0.2,4.7
						c-1-1.1-1.7-4.9-2.9-5.2c-2.4-0.5-5.7,2.5-4.9,8c0.8,5,3.2,9.5,4.3,12.3c1.5,4,1.9,7.9,0.8,5.8c-2.5-4.8-7.2-14-8.7-20.5
						c-1.4-6.5,0.1-10.9,2.6-12.6c3.1-2.1,5.8,0.5,7.9,4.5l0.7,1.7c0.7,0,1.9,0.2,3.7,0.6c5.2,1.3,18.3,3.3,36.3,5.9
						c13.3,1.9,22.5,5.8,31.4,10.2c0-1.1,0-2.1,0-3.3c0.5-13.2,8.5-16.9,19.4-14.5c10.6,2.4,25.3,12.9,34.1,19.9
						c9.2,7.4,14.5,13.9,15.9,16.2c2.5,5.6,3.1,11.8,3.3,14.8c0.8-8.1,1.5-19.2,8.5-28.8c6.5-8.8,19.8-21.1,44.9-21.5
						C225.7-271.9,224.5-261.8,224.5-261.8 M222.9-180c3.6,4.4,11.2,1.5,17-4c-2.9-0.7-6.9-2.1-11.3-3.8
						C225.9-184.4,222.9-181.1,222.9-180"/>
				</g>
				<g transform="matrix(7.3042,0,0,-6.7531,952.63,471.1)">
					<path class="st2" d="M124.8-162.8c1.6,0.8,6.6,3.2,12,6.6c5.4,3.4,10.4,7.4,12.8,10.1c0.9,1,1.8,1.8,2.3,2.8
						c1.6-0.7,2.7-1.5,3.4-1.8c1-0.4,2.4-1.1,3.3,2.1c0.9,3.2-0.3,5.2-2,7.7c-1.5,2.1-3.8,5.2-5.7,5.9c-1.6,0.7-2.4-3.3-2.1-3.2h1.1
						l0.2-0.1c-2.2-1.2-4-5-4.1-6.3c-0.2-1.4,0.1-2.5,3.3-3.4l1.3-0.4c-2.7-3.4-7.6-7-11-9.5c-4.8-3.6-11.6-8-13.6-9.3
						C123.9-162.7,124-163.1,124.8-162.8 M153.7-137.7l0.2,1.7c2.2-2.8,3.9-6.1,3.8-6.5c-1-0.1-2.3,0.9-4.6,2
						C153.3-139.7,153.5-138.8,153.7-137.7 M147.2-137.7c0,0.5,0.9,2,2.7,2.8c1.8,0.8,2.6-1.4,2.8-4.1l-0.5-1.1l-1.6,0.6
						C148.8-139,147.6-138.7,147.2-137.7"/>
				</g>
				<g transform="matrix(7.3042,0,0,-6.7531,1215.5,576.87)">
					<path class="st2" d="M208.7-199.3c2.6,1.9,9.9,7.6,14,11.3c2.9,2.6,6.2,6.4,8.5,9.6c1.4-1,2.8-1.9,4-2.7
						c2.3-1.5,3.3-3.7,3.3-3.7c0.4,0.7,2.5,4.7,1.7,6.6c-0.5,0.6-3.4,2.4-6.3,4.4c1.5,3.6,3.6,9.9,0.6,12.1
						c-2.5,1.9-6.8-1.2-8.7-5.2c-1.6-3.3-1.8-6.1,1.3-8.4c0.9-0.6,1.7-1.3,2.5-1.8c-3.1-3.7-8.9-9.2-13-12.9
						c-5.1-4.6-9.9-9.1-10.8-10.2l-0.2-0.4c-1.1,3.4-0.8,5.4-1.6,4.3c-3.6-6.1,0.9-11,2.5-15.9c-2.2-2.2-5.6-0.2-6.7,1.7
						c-2.4,3.9-1.6,11.9-4.4,13.1c-0.7-2.1-1.2-4.5-1.2-4.5s2.1-5.4,1.6-9c-0.3-2.2-2.1-4.7-4.5-4.8c-6.3-0.2-3.2,9.8-5.6,15.5
						c-0.5-1.4-0.8-2.9-1.4-4.2c0.4-1.5,0.7-3.6,0.7-4.8c0.2-2.4,0-4.9,0.3-7c0.5-2.9,2-4.8,4.2-4.9c4.7-0.4,6.8,3.7,7.5,7
						c0.8-3.4,7-7.2,10-3c4,5.5,0.8,10.3-1.3,15.5l-0.2,0.7C205.9-201.1,207-200.6,208.7-199.3 M227-168.1c1.5,3.1,4.8,3.4,5.8,1.7
						c0.8-1.3,0.8-3.8-0.3-6.5C229.6-170.9,227-169,227-168.1"/>
				</g>
				<g transform="matrix(7.3042,0,0,-6.7531,992.43,536.89)">
					<path class="st2" d="M137.5-185.5c-5.5,0.4-8.4,5.9-10.1,13.7c-1.7,7.9-0.7,18.2-0.2,20.9c0.5,2.7-2.1,1.3-3.1-5.2
						c-1-6.4-2-16.7,1.5-27.5c3.5-10.8,9.6-14.8,14.8-13.4c5.3,1.4,9.9,14.8,11.6,20.8c1.6,6,9,30.6,13.1,31.9
						c0.6-3-3.2-10.6-4.4-21.9c-1.2-11.3,0.9-26.2,14.2-28.9c13.3-2.6,22.4,6.7,25.6,13.2c3.3,6.5,4.8,13.3,5.2,16.7
						c0.4-8.7,5.9-22.3,16.6-26.2c10.3-3.7,18.2-0.3,21.7,4.5c3.1,4.3,5.6,13.2,5.8,20c0.2,6.8-5.2,19.3-6.4,23.2
						c-1.2,4-1.8,6.7-2,8.1c-0.1,1.4,2.8-1.6,4.5-2.2c1.2-0.3,0.8,2.6-0.7,4.5c-1.5,1.9-9.5,15.1-10,14.1
						c-0.3-0.5-3.5-10.2-3.8-11.7c1.3-0.9,2.7-3.4,2.8-5.8c0.1-2.4,2.2-12.8,4.2-18.6c2-5.8,5.8-16.9,6-20
						c-3.8-2.9-12.4-6.6-20.5-2.8c-8.1,3.8-10.7,9.2-11.6,18.9c-0.6,6.2-0.6,17.6-2.7,27.2c-1.2,5.4-3.6,10.9-6.5,13.8
						c-0.7-1.8-3.7-12.8-3.7-12.8c1-3.2,4.1-13.8,4-23.1c-0.1-9.2-0.8-18.3-10.4-24.5c-9.6-6.2-23.2-3.7-26.7,6
						c-3.5,9.7,4.3,31.6,4.2,37.3c-0.1,5.8-1.1,6.5-3.3,5.6c-2.2-0.9-6.8-6.5-10.7-15.5c-3.9-9-5.6-18-7.9-25.7
						C146.5-178.3,143-186,137.5-185.5"/>
				</g>
				<g transform="matrix(7.3042,0,0,-6.7531,642.92,468.66)">
					<path class="st2" d="M25.9-162c6.8,0.5,12.5,6.1,13.9,7.5c1.5,1.5,2.3,3.7,1.2,2.9c-7.8-7.5-18.3-7.8-18.9-6.5
						c0.3,1.3,3,3.3,7,6.2c2.4,1.8,4.6,3.4,6.2,5.8l0.4-0.1c3-0.7,6.4-2.1,7.5-1c1.7,1.8,1.9,4.8,0.1,8c-1.6,2.7-5.2,5.3-8.4,7.1
						c-3.2,1.8-3.8-1.1-4.2-2.1c-0.4-1-0.2-1.8,0.4-1.8c-1-1.5-1.7-3.4-2-5c-0.2-1,0-1.9,0.4-2.6c0.1-0.2,0.7-1,1.8-1.4l1.4-0.5
						c-2.4-2.4-5.1-4.2-6.5-5.2c-2.6-1.7-5.7-4.6-6.6-7.7C18.8-161.4,19.1-162.5,25.9-162 M37.8-140.4l0.3,1.6v1
						c2.1-1.7,5.6-4.9,5.4-6.8c-1.4,0.3-3.9,0.9-6.4,1.6C37.4-142.2,37.6-141.4,37.8-140.4 M31.5-140.9c-1.6,1.4,0,2.7,1.4,3.6
						c1.8,1.1,2.9,0.2,3.8-2.8c-0.3-0.8-0.8-1.7-1.3-2.5C33.9-142.1,31.9-141.3,31.5-140.9"/>
				</g>
				<g transform="matrix(7.3042,0,0,-6.7531,687.36,635.95)">
					<path class="st2" d="M40.1-219.8c-1.9-1.8-2.7-7.8-2.3-8.1c0.4-0.4,6.5-2.6,7.4-3.1l0.4,1.8c2.9-2.8,6.1-16.8,6.8-16.9
						c0.7,0,1.7,1.6,2.4,5.3c0.6,3.5,1.2,8.6,1.9,12.8c0.6,3.8,1.5,6.1,3.7,6.5c2.1,0.4,3.7-2.5,4.3-4.6c0,0,1.5,3.9,1.8,6.3
						c-0.4,1.3-3.7,6.1-6.4,4.5c-2.7-1.6-4.4-8.3-5-12.5c-0.6-4.2-1-9.4-1.7-10.2c-0.7,3.6-3,10-5.7,13.6
						C44.7-220.3,41.1-218.8,40.1-219.8"/>
				</g>
				<g transform="matrix(7.3042,0,0,-6.7531,630.59,621.43)">
					<path class="st2" d="M22-214.7c2.5,0.8,8.2,1.7,11,3.2c2.6,1.3,7,7.7,8.7,10.1c1.7,2.4,1.7,3.6,1.3,4.2c-1.7,1-13,2.1-18.4,0.6
						c-1.5-1.1-4.4-7-4.9-8.2c-0.4-1.2,0.2-1.1,2-0.7c1.8,0.4,10.5,0.2,13.6-0.5c-1.3-1-10.1-5.8-11.9-7
						C21.5-214.2,21.1-214.9,22-214.7"/>
				</g>
				<g transform="matrix(7.3042,0,0,-6.7531,1778.1,690.36)">
					<path class="st2" d="M388.4-238.5c-0.3,7.1-3.5,18.1-15.7,34.8c-4.2,5.8-10.2,13.3-16.5,21.1c-0.2,2.6-0.3,5-0.5,7.1
						c-0.8,10.6-3.6,32.3-4.8,45.1c-0.3,3.2-0.3,6.7-0.3,8.5c0,1.4,1,1.2,2.3-0.2c1.3-1.5,3.3-3.6,3.7-3.5c0.9,0.3,0.1,3.6-1.7,7.4
						c-1.8,3.8-8.5,19.4-9.7,20c-0.6,0.3-3.8-8.8-4-10.7c0.6-1.1,2.3-2.9,2.4-8.1c0.2-5.2,3.1-35.8,4.7-55.1l0.1-1.1
						c-9.4,11.3-18.2,21.7-21.9,25.9c-0.6,0.7-1.3,1.6-2.1,2.4c-0.6,5.2-1.1,10.1-1.5,14.1c-0.3,3.2-0.3,6.7-0.3,8.5
						c0,1.4,1,1.2,2.3-0.2c1.3-1.5,3.3-3.6,3.7-3.4c0.9,0.3,0.1,3.6-1.7,7.4c-1.8,3.8-8.8,19.7-10,20.3c-0.6,0.3-3.9-9.5-4.1-11.4
						c0.6-1.2,2.3-2.9,2.4-8.1c0.1-2.2,0.6-8.9,1.3-17.3c-6.2,8-12.3,16.4-12.8,18.1c-0.2,0.8,1.2,0.3,3.6-0.1
						c2.4-0.4,4.7-1.2,4.3,0.1c-0.2,0.6-1.1,2.1-3.4,3.7c-2.3,1.6-8.3,5.6-12.7,8.4c-4.4,2.8-6.6,5.2-7.6,4.6
						c-0.5-0.3,0-10.1,0.2-11.3c1.1-0.1,3.2-1,4.5-2.9c1.3-1.9,9.8-14.8,16.5-23.5c1.9-2.5,5-6.4,8.5-10.9c0.7-8,1.4-16.3,2-23.2
						c1.4-15.8,6.3-57.5,6.3-71c-3.6-3.7-11-8.8-18.6-8.9c-7.6-0.1-11.8,2.1-14.8,8.2c-0.9,1.9-1.8,3.8-2.7,5.5
						c-2.1,4.1-6.7,6.4-11.2,5.3l-0.7-0.2l-1.2-0.6c-3-1.7-6.1-4.6-9.2-9c-5.3-7.7-8.7-16.1-12.6-23.3c-4.1-7.5-7.2-12.6-14.3-11.4
						c-5,0.9-8.8,5.5-11.2,11.3c6.6,4.9,11.4,11.4,14.9,20.3c4.6,11.6,6.2,24.7,5.8,39.5c-0.4,13.9-6.2,46.5-7.8,59
						c-1.5,12.5-3.8,22.8-3.5,25.4c0.2,2.6,4-3.5,6-3.9c1,0.2,0.5,4.1-1.4,7.4c-1.3,2.2-5.3,12.3-8,17.2c-1.2,2.3-1.5,3.6-2.1,3.9
						c-0.6,0.3-5-9.9-4.5-11c1.3-2,2.2-3,2.5-6.6c0.3-3.6,3.3-30.2,6-49.8c2-14.8,6.4-41.6,7-61.4c0.2-6.5-0.7-11.1-1.4-13.7
						c-1.9-4-5-8.4-15.9-16.8c-1.7,11.8,0.1,21.4-1.4,22.3c-1.8-0.2-2.1-5.7-2.3-12.5c-0.1-3.1,0-7.5,0.6-12.2
						c-13.4-9.7-31-18.5-39.3-23.1c-4.9-2.8-3.1-3.4,1-2c4.1,1.4,26.7,7.8,38.8,14.7l1.3,0.8c0.6-2.3,1.4-4.5,2.3-6.6
						c4.1-9.1,9.9-14.6,16.2-14c5.3,0.4,9.1,6.6,12.5,13.9c3.4,7.4,9.1,21.4,14.7,26.6c2.2,2,4.4,3.6,6.5,4.6c0,0,3.8,1.4,7.4-1.1
						c1.3-0.9,2.2-2.2,2.8-3.6c1.4-3.3,3-7.5,6.4-11c5.9-6.2,15.4-4.9,22.6-1.3c7.1,3.6,10.8,9.2,12.4,15.8
						c2.7,11.4,2.3,23,1.8,33.4c-0.6,11.8-2.3,23.9-3.3,36.7c-0.3,4.1-0.9,9.8-1.7,16c7-8.7,14.2-17.5,18.5-22.3
						c1.5-1.7,3.1-3.5,4.7-5.5c1.3-19.4,2.6-43.6,3.2-53.8c0.7-10.1,0.2-22.9,0.2-25.1c-0.1-2.2,1.1-1.8,2.7,3.1
						c2.2,6.6,3.6,23.9,3.1,35.4c-0.3,6.8-0.9,19.3-1.6,31c5.4-6.9,10.5-13.9,13.8-18.7c5.9-8.4,11.4-18.4,13.3-24.6
						c1.9-6.2,2.1-8.1,2.5-9.2S388.7-245.7,388.4-238.5"/>
				</g>
			</g>
			<path id="sword" class="st2" d="M3884.2,3902c-3.9-11.2-15.9-19.4-30.2-19.4s-26.3,8.2-30.2,19.4h-135.6c-1.4-15,0-30.2,4.2-44.9
				l279.9-0.2l7.8,13.1c7,11.8,15.9,22.5,26.2,31.9L3884.2,3902z M4069.5,3772h-336.3c25.8-18.7,39.4-45.9,35.8-73.4
				c-2.3-17.4-19.5-30.3-40.5-32.1h-10.5c-25.5,2.5-44,20.9-41.3,41.1l1,7.8l1.2,11.9c1.4,15,0.1,30.1-4.2,44.7H1188.8
				c36.9,53.7,104.2,86.6,176.9,86.6l2268.5-1.4c-25.9,18.7-39.6,45.9-35.9,73.5c2.7,20.2,25.5,34.6,51,32.1
				c25.5-2.5,44-20.9,41.3-41.1l-1-7.7h133.3c2.3,13,15.3,23,31.2,23c15.8,0,28.8-10,31.2-23h135.6v-0.3
				c28.3,20.1,64.3,31.6,102.4,31.6c35.8,0,64.8-24.9,64.8-55.6v-16.1C4188,3817.5,4135,3772,4069.5,3772"/>
		</g>
	</g>
</g>
</svg>
