<svg id="Layer_1" data-name="Layer 1" xmlns="http://www.w3.org/2000/svg" viewBox="0 0 500 500"><defs><style>.cls-1{fill:#d00;}.cls-2{fill:#ffce00;}</style></defs><path d="M497.61,250a247.18,247.18,0,0,1-14.73,84.32C448.39,429.56,357.14,497.61,250,497.61S51.61,429.56,17.12,334.32a248.7,248.7,0,0,1,0-168.64C51.61,70.44,142.86,2.39,250,2.39S448.39,70.44,482.88,165.68A247.18,247.18,0,0,1,497.61,250Z"/><path class="cls-1" d="M497.61,250a247.18,247.18,0,0,1-14.73,84.32C448.39,429.56,357.14,497.61,250,497.61S51.61,429.56,17.12,334.32a248.7,248.7,0,0,1,0-168.64H482.88A247.18,247.18,0,0,1,497.61,250Z"/><path class="cls-2" d="M482.88,334.32C448.39,429.56,357.14,497.61,250,497.61S51.61,429.56,17.12,334.32Z"/></svg>
