<svg id="Layer_1" data-name="Layer 1" xmlns="http://www.w3.org/2000/svg" viewBox="0 0 500 500"><defs><style>.cls-1{fill:none;}.cls-2{fill:#012169;}.cls-3{fill:#fff;}.cls-4{fill:#c8102e;}</style></defs><path class="cls-1" d="M497.61,249.92V250a248.18,248.18,0,0,1-5,49.79q-1.46,7.18-3.34,14.2-2.17,8.19-4.91,16.14c-.33,1-.67,1.94-1,2.91a246.55,246.55,0,0,1-28.78,56.53q-4.76,7-10,13.6A247,247,0,0,1,250,497.61h-.41A247,247,0,0,1,55.2,402.87q-5.21-6.62-10-13.6a245.39,245.39,0,0,1-16.87-28.74h0A244.71,244.71,0,0,1,16.66,333c-.39-1.08-.77-2.17-1.13-3.26q-2.71-8-4.88-16.15-1.83-6.84-3.25-13.84a248.18,248.18,0,0,1-5-49.79v-.08a249.05,249.05,0,0,1,5-49.87q1.43-7,3.26-13.83,2.16-8.19,4.89-16.14c.37-1.1.75-2.19,1.14-3.28a245.92,245.92,0,0,1,28.6-56.18q4.76-7,10-13.61A247,247,0,0,1,249.59,2.39H250a248.71,248.71,0,0,1,49.46,4.94,247,247,0,0,1,145,89.39q5.23,6.61,10,13.6a245.72,245.72,0,0,1,28.82,56.48c.35,1,.69,1.95,1,2.93q2.73,8,4.92,16.14,1.89,7,3.35,14.18A249.05,249.05,0,0,1,497.61,249.92Z"/><path class="cls-2" d="M497.61,249.92V250a248.18,248.18,0,0,1-5,49.79q-1.46,7.18-3.34,14.2-2.17,8.19-4.91,16.14c-.33,1-.67,1.94-1,2.91a246.55,246.55,0,0,1-28.78,56.53q-4.76,7-10,13.6A247,247,0,0,1,250,497.61h-.41A247,247,0,0,1,55.2,402.87q-5.21-6.62-10-13.6a245.39,245.39,0,0,1-16.87-28.74h0A244.71,244.71,0,0,1,16.66,333c-.39-1.08-.77-2.17-1.13-3.26q-2.71-8-4.88-16.15-1.83-6.84-3.25-13.84a248.18,248.18,0,0,1-5-49.79v-.08a249.05,249.05,0,0,1,5-49.87q1.43-7,3.26-13.83,2.16-8.19,4.89-16.14c.37-1.1.75-2.19,1.14-3.28a245.92,245.92,0,0,1,28.6-56.18q4.76-7,10-13.61A247,247,0,0,1,249.59,2.39H250a248.71,248.71,0,0,1,49.46,4.94,247,247,0,0,1,145,89.39q5.23,6.61,10,13.6a245.72,245.72,0,0,1,28.82,56.48c.35,1,.69,1.95,1,2.93q2.73,8,4.92,16.14,1.89,7,3.35,14.18A249.05,249.05,0,0,1,497.61,249.92Z"/><path class="cls-1" d="M28.36,360.53h0l55-27.49,66.5-33.25,99.74-49.87,99.74-49.87,66.5-33.25L471.4,139m.07,221.85L415.83,333l-66.5-33.25-99.74-49.87-99.74-49.87L83.35,166.8,28.43,139.34"/><path class="cls-3" d="M489.26,314q-2.17,8.19-4.91,16.14c-.33,1-.67,1.94-1,2.91a246.55,246.55,0,0,1-28.78,56.53q-4.76,7-10,13.6L332.71,347.24l-33.25-16.63-49.87-24.93-49.87,24.93-33.25,16.63L55.2,402.87q-5.21-6.62-10-13.6a245.39,245.39,0,0,1-16.87-28.74h0A244.71,244.71,0,0,1,16.66,333c-.39-1.08-.77-2.17-1.13-3.26q-2.71-8-4.88-16.15l27.69-13.84,99.74-49.87L38.34,200.05,10.69,186.22q2.16-8.19,4.89-16.14c.37-1.1.75-2.19,1.14-3.28a245.92,245.92,0,0,1,28.6-56.18q4.76-7,10-13.61L166.47,152.6l33.25,16.63,49.87,24.93,49.87-24.93,33.25-16.63L444.47,96.72q5.23,6.61,10,13.6a245.72,245.72,0,0,1,28.82,56.48c.35,1,.69,1.95,1,2.93q2.73,8,4.92,16.14l-28.37,14.18-99.74,49.87,99.74,49.87Z"/><path class="cls-1" d="M497.61,249.92V250a248.18,248.18,0,0,1-5,49.79q-1.46,7.18-3.34,14.2-2.17,8.19-4.91,16.14c-.33,1-.67,1.94-1,2.91a246.55,246.55,0,0,1-28.78,56.53q-4.76,7-10,13.6A247,247,0,0,1,250,497.61h-.41A247,247,0,0,1,55.2,402.87q-5.21-6.62-10-13.6a245.39,245.39,0,0,1-16.87-28.74h0A244.71,244.71,0,0,1,16.66,333c-.39-1.08-.77-2.17-1.13-3.26q-2.71-8-4.88-16.15-1.83-6.84-3.25-13.84a248.18,248.18,0,0,1-5-49.79v-.08a249.05,249.05,0,0,1,5-49.87q1.43-7,3.26-13.83,2.16-8.19,4.89-16.14c.37-1.1.75-2.19,1.14-3.28a245.92,245.92,0,0,1,28.6-56.18q4.76-7,10-13.61A247,247,0,0,1,249.59,2.39H250a248.71,248.71,0,0,1,49.46,4.94,247,247,0,0,1,145,89.39q5.23,6.61,10,13.6A243.05,243.05,0,0,1,471.4,139L415.83,166.8,249.59,249.92Z"/><path class="cls-4" d="M423.67,299.79l60.68,30.34c-.33,1-.67,1.94-1,2.91a246.55,246.55,0,0,1-28.78,56.53L341.49,333l-42-21-49.87-24.93L199.72,312l-42,21L45.24,389.27a245.39,245.39,0,0,1-16.87-28.74h0A244.71,244.71,0,0,1,16.66,333c-.39-1.08-.77-2.17-1.13-3.26l159.72-79.86L75.51,200.05l-59.93-30c.37-1.1.75-2.19,1.14-3.28a245.92,245.92,0,0,1,28.6-56.18L157.69,166.8l42,21,49.87,24.93,49.87-24.93,42-21,113-56.48a245.72,245.72,0,0,1,28.82,56.48c.35,1,.69,1.95,1,2.93l-60.63,30.32-99.74,49.87Z"/><path class="cls-1" d="M497.61,249.92H2.39m247.2,247.69V2.39"/><path class="cls-3" d="M497.61,249.92V250a248.18,248.18,0,0,1-5,49.79q-1.46,7.18-3.34,14.2-2.17,8.19-4.91,16.14c-.33,1-.67,1.94-1,2.91H332.71V483.46a246.18,246.18,0,0,1-33.25,9.21A248.71,248.71,0,0,1,250,497.61h-.41a247.23,247.23,0,0,1-83.12-14.44V333H16.66c-.39-1.08-.77-2.17-1.13-3.26q-2.71-8-4.88-16.15-1.83-6.84-3.25-13.84a248.18,248.18,0,0,1-5-49.79v-.08a249.05,249.05,0,0,1,5-49.87q1.43-7,3.26-13.83,2.16-8.19,4.89-16.14c.37-1.1.75-2.19,1.14-3.28H166.47v-150A247.23,247.23,0,0,1,249.59,2.39H250a248.71,248.71,0,0,1,49.46,4.94,246.18,246.18,0,0,1,33.25,9.21V166.8H483.28c.35,1,.69,1.95,1,2.93q2.73,8,4.92,16.14,1.89,7,3.35,14.18A249.05,249.05,0,0,1,497.61,249.92Z"/><path class="cls-1" d="M497.61,249.92H2.39m247.2,247.69V2.39"/><path class="cls-4" d="M497.61,249.92V250a248.18,248.18,0,0,1-5,49.79H299.46V492.67A248.71,248.71,0,0,1,250,497.61h-.41a248.91,248.91,0,0,1-49.87-5.11V299.79H7.4a248.18,248.18,0,0,1-5-49.79v-.08a249.05,249.05,0,0,1,5-49.87H199.72V7.5a248.91,248.91,0,0,1,49.87-5.11H250a248.71,248.71,0,0,1,49.46,4.94V200.05H492.57A249.05,249.05,0,0,1,497.61,249.92Z"/></svg>
