<svg id="Layer_1" data-name="Layer 1" xmlns="http://www.w3.org/2000/svg" viewBox="0 0 500 500"><circle cx="250" cy="250" r="240.78" fill="none" stroke="#2efddb" stroke-miterlimit="10" stroke-width="11"/><path d="M395.65,284l-11.88-123.3a4.14,4.14,0,0,0-4.12-3.74h-14a3.87,3.87,0,0,0-.77.08,16.89,16.89,0,0,0-9.95-9.82c-23.18-8.48-60-6-108.59,11.95-50.35,18.59-79.84-1.58-85.6-6.14-.15-1.71-.3-3.43-.51-5.13,0-.14,0-.28,0-.42-.17-1.84-2.56-3.07-4.39-2.77a3.47,3.47,0,0,0-3,4l.63,6.74,1.68,18.16q1.26,13.51,2.51,27,1.53,16.38,3.05,32.76,1.67,18,3.34,36,1.69,18.17,3.38,36.34,1.58,16.93,3.14,33.88,1.33,14.31,2.66,28.62l1.92,20.59c.3,3.24.5,6.5.9,9.74,0,.14,0,.27,0,.41.17,1.84,2.55,3.07,4.39,2.77a3.47,3.47,0,0,0,3-4l-.63-6.73q-.84-9.09-1.69-18.17-1.24-13.51-2.51-27-1.51-16.38-3-32.76-1.28-13.62-2.53-27.25a50,50,0,0,0,6.86,4.5c.55.31,1.13.62,1.73.93a72.34,72.34,0,0,0,12.55,5c1.83.54,3.76,1,5.81,1.49,1.53.34,3.13.64,4.78.89,13.81,2.16,31.85,1.45,53.89-6.69,22.92-8.46,43.22-13.49,60.71-15.55a143.76,143.76,0,0,1,22.4-1q5.13.19,9.81.84a76.77,76.77,0,0,1,13.32,3c0,.09,0,.19,0,.29.37,2.36,3.74,17.52,28,8.79A4.16,4.16,0,0,0,395.65,284Z" fill="#2efddb"/></svg>
