<svg id="Layer_1" data-name="Layer 1" xmlns="http://www.w3.org/2000/svg" viewBox="0 0 500 500"><defs><style>.cls-1{fill:#ed2939;}.cls-2{fill:#fff;}.cls-3{fill:#002395;}</style></defs><path class="cls-1" d="M497.61,250c0,107.51-68.53,199-164.28,233.24a248.74,248.74,0,0,1-166.67,0C70.91,449,2.39,357.51,2.39,250S70.91,51,166.66,16.77a248.74,248.74,0,0,1,166.67,0C429.08,51,497.61,142.49,497.61,250Z"/><path class="cls-2" d="M333.33,16.76V483.24a248.74,248.74,0,0,1-166.67,0C70.91,449,2.39,357.51,2.39,250S70.91,51,166.66,16.77a248.74,248.74,0,0,1,166.67,0Z"/><path class="cls-3" d="M166.66,16.77V483.23C70.91,449,2.39,357.51,2.39,250S70.91,51,166.66,16.77Z"/></svg>
