<?xml version="1.0" encoding="UTF-8"?>
<svg data-name="Layer 1" version="1.1" viewBox="0 0 500 500" xmlns="http://www.w3.org/2000/svg">
 <defs>
  <style>.cls-1{fill:#ed2939;}.cls-2{fill:#fff;}.cls-3{fill:#002395;}</style>
 </defs>
 <g transform="rotate(-90 250 250)">
  <path class="cls-1" d="m497.61 250c0 107.51-68.53 199-164.28 233.24a248.74 248.74 0 0 1-166.67 0c-95.75-34.24-164.27-125.73-164.27-233.24s68.52-199 164.27-233.23a248.74 248.74 0 0 1 166.67 0c95.75 34.23 164.28 125.72 164.28 233.23z"/>
  <path class="cls-2" d="m333.33 16.76v466.48a248.74 248.74 0 0 1-166.67 0c-95.75-34.24-164.27-125.73-164.27-233.24s68.52-199 164.27-233.23a248.74 248.74 0 0 1 166.67 0z"/>
  <path class="cls-3" d="m166.66 16.77v466.46c-95.75-34.23-164.27-125.72-164.27-233.23s68.52-199 164.27-233.23z"/>
 </g>
</svg>
