<?xml version="1.0" encoding="utf-8"?>
<!-- Generator: Adobe Illustrator 26.4.1, SVG Export Plug-In . SVG Version: 6.00 Build 0)  -->
<svg version="1.1" id="Layer_1" xmlns="http://www.w3.org/2000/svg" xmlns:xlink="http://www.w3.org/1999/xlink" x="0px" y="0px"
	 viewBox="0 0 500 500" style="enable-background:new 0 0 500 500;" xml:space="preserve">
<style type="text/css">
	.st0{fill:#CD1126;}
	.st1{fill:#FED612;}
	.st2{fill:#002B7E;}
	.st3{fill:#FBD016;}
	.st4{fill:#001F85;}
	.st5{fill:#A7983A;}
	.st6{fill:#FEDD15;}
	.st7{fill:#DD5221;}
	.st8{fill:#CB0A27;}
</style>
<path class="st0" d="M250,2.4c28.7,0,57.3,5,84.3,14.7C429.6,51.6,497.6,142.9,497.6,250s-68,198.4-163.3,232.9
	c-54.5,19.6-114.1,19.6-168.6,0C70.4,448.4,2.4,357.1,2.4,250S70.4,51.6,165.7,17.1C192.7,7.3,221.3,2.4,250,2.4z"/>
<path class="st1" d="M250,497.6c-28.7,0-57.3-5-84.3-14.7C70.4,448.4,2.4,357.1,2.4,250s68-198.4,163.3-232.9
	c54.5-19.6,114.1-19.6,168.6,0v465.8C307.3,492.7,278.7,497.6,250,497.6z"/>
<path class="st2" d="M165.7,482.9C70.4,448.4,2.4,357.1,2.4,250s68-198.4,163.3-232.9V482.9z"/>
<path class="st2" d="M-303.5,445.2c-22.8,0-45.7,0-68.5,0c-0.6,0-0.8-0.1-0.8-0.8c0-69,0-138.1,0-207.1c0-0.7,0.2-0.8,0.8-0.8
	c22.8,0,45.7,0,68.5,0c0.2,0.2,0.3,0.5,0.3,0.8c0,0.3,0,0.6,0,0.9c0,68.4,0,136.8,0,205.3C-303.3,444-303.1,444.6-303.5,445.2
	L-303.5,445.2z"/>
<path class="st0" d="M-233.5,236.5c22.8,0,45.6,0,68.3,0c0.6,0,0.8,0.1,0.8,0.8c0,69,0,138.1,0,207.1c0,0.7-0.2,0.8-0.8,0.8
	c-22.8,0-45.6,0-68.3,0c-0.2-0.2-0.3-0.5-0.3-0.8c0-0.3,0-0.6,0-0.9c0-68.4,0-136.8,0-205.3C-233.8,237.6-234,237-233.5,236.5
	L-233.5,236.5z"/>
<path class="st3" d="M-303,236.5h69c0.2,0.2,0.3,0.5,0.3,0.8c0,0.3,0,0.6,0,0.9c0,68.4,0,136.8,0,205.3c0,0.6,0.2,1.2-0.3,1.7h-69
	c-0.2-0.2-0.3-0.5-0.3-0.8c0-0.3,0-0.6,0-0.9c0-68.4,0-136.8,0-205.3C-303.3,237.6-303.4,237-303,236.5L-303,236.5z"/>
<path class="st4" d="M-303.5,445.2V236.5h0.2c0.3,0.4,0.2,0.8,0.2,1.3c0,16.9,0,33.8,0,50.8c0,51.7,0,103.4,0,155.2
	c0,0.5,0.1,1-0.2,1.4L-303.5,445.2L-303.5,445.2z"/>
<path class="st5" d="M-303.4,445.2V236.5h0.2c0.2,0.3,0.1,0.6,0.1,0.9c0,68.9,0,137.8,0,206.7c0,0.3,0.1,0.6-0.1,0.9H-303.4z"/>
<path class="st1" d="M-303.2,445.2V236.5h0.2v208.6H-303.2z"/>
<path class="st6" d="M-234,445.2V236.5h0.2c0.3,0.4,0.2,0.8,0.2,1.3c0,16.9,0,33.8,0,50.8c0,51.7,0,103.4,0,155.2
	c0,0.5,0.1,1-0.2,1.4L-234,445.2L-234,445.2z"/>
<path class="st7" d="M-233.9,445.2V236.5h0.2c0.2,0.3,0.1,0.6,0.1,0.9c0,68.9,0,137.8,0,206.7c0,0.3,0.1,0.6-0.1,0.9H-233.9z"/>
<path class="st8" d="M-233.7,445.2V236.5h0.2v208.6H-233.7z"/>
</svg>
