<?xml version="1.0" encoding="utf-8"?>
<!-- Generator: Adobe Illustrator 26.0.1, SVG Export Plug-In . SVG Version: 6.00 Build 0)  -->
<svg version="1.1" id="Layer_1" xmlns="http://www.w3.org/2000/svg" xmlns:xlink="http://www.w3.org/1999/xlink" x="0px" y="0px"
	 viewBox="0 0 500 500" style="enable-background:new 0 0 500 500;" xml:space="preserve">
<style type="text/css">
	.st0{clip-path:url(#SVGID_00000182506278157869265230000001469111236305609893_);}
	.st1{clip-path:url(#SVGID_00000168083985346368162380000009237706296192100245_);fill:#FF0000;}
	.st2{clip-path:url(#SVGID_00000168083985346368162380000009237706296192100245_);fill:#005CE5;}
	.st3{clip-path:url(#SVGID_00000168083985346368162380000009237706296192100245_);fill:#FFFFFF;}

		.st4{clip-path:url(#SVGID_00000168083985346368162380000009237706296192100245_);fill-rule:evenodd;clip-rule:evenodd;fill:#005CE5;}

		.st5{clip-path:url(#SVGID_00000168083985346368162380000009237706296192100245_);fill-rule:evenodd;clip-rule:evenodd;fill:#FFFFFF;}

		.st6{clip-path:url(#SVGID_00000168083985346368162380000009237706296192100245_);fill-rule:evenodd;clip-rule:evenodd;fill:#FFE500;}

		.st7{clip-path:url(#SVGID_00000168083985346368162380000009237706296192100245_);fill-rule:evenodd;clip-rule:evenodd;fill:#FF0000;}
</style>
<defs>
	<circle id="SVGID_1_" cx="250" cy="250" r="250"/>
</defs>
<clipPath id="SVGID_00000003098437684444242180000002144166282250800571_">
	<use xlink:href="#SVGID_1_"  style="overflow:visible;"/>
</clipPath>
<g style="clip-path:url(#SVGID_00000003098437684444242180000002144166282250800571_);">
	<defs>
		<rect id="SVGID_00000166648698890924562720000015084554054491833530_" x="-14.7" y="2.4" width="995.2" height="497.6"/>
	</defs>
	<clipPath id="SVGID_00000090269855333761690250000018235678648505071266_">
		<use xlink:href="#SVGID_00000166648698890924562720000015084554054491833530_"  style="overflow:visible;"/>
	</clipPath>

		<rect x="-14.7" y="2.4" style="clip-path:url(#SVGID_00000090269855333761690250000018235678648505071266_);fill:#FF0000;" width="995.2" height="497.6"/>

		<rect x="-14.7" y="2.4" style="clip-path:url(#SVGID_00000090269855333761690250000018235678648505071266_);fill:#005CE5;" width="995.2" height="331.7"/>

		<rect x="-14.7" y="2.4" style="clip-path:url(#SVGID_00000090269855333761690250000018235678648505071266_);fill:#FFFFFF;" width="995.2" height="165.9"/>

		<path style="clip-path:url(#SVGID_00000090269855333761690250000018235678648505071266_);fill-rule:evenodd;clip-rule:evenodd;fill:#005CE5;" d="
		M234.1,89.6c-1.1,0-2.2,0-3.3,0.1c-21.5,0.6-41.8,6.1-56.2,12.9l0,0c-1.6,0.7-3.1,1.3-4.6,2l5,77.5c3.4,40.5,29.8,64.1,59.2,73.4
		c29.3-9.3,55.7-32.9,59.2-73.4l4.9-77.3c-1.5-0.8-3-1.5-4.6-2.2l0,0C278.5,95.5,256.9,89.7,234.1,89.6
		C234.1,89.6,234.1,89.6,234.1,89.6C234.1,89.6,234.1,89.6,234.1,89.6L234.1,89.6z"/>

		<path style="clip-path:url(#SVGID_00000090269855333761690250000018235678648505071266_);fill-rule:evenodd;clip-rule:evenodd;fill:#FFFFFF;" d="
		M218.1,216.5c-5.3,0-10.7,4.3-16,4.3c-1.2,0-2.3-0.1-3.3-0.3c9.2,12.4,21.9,20.6,35.4,25.4c13.5-4.7,26.1-13,35.3-25.3
		c-1,0.2-2.1,0.3-3.3,0.3c-5.3,0-10.7-4.3-16-4.3c-5.3,0-10.7,4.3-16,4.3C228.7,220.8,223.4,216.5,218.1,216.5L218.1,216.5z
		 M218.1,207.5c-5.3,0-10.7,4.3-16,4.3c-4.2,0-7.9-1.5-10.7-3.6c1,2.1,2,4.2,3.2,6.1c2.2,1.4,4.7,2.3,7.5,2.3c5.3,0,10.7-4.3,16-4.3
		c5.3,0,10.7,4.3,16,4.3c5.3,0,10.7-4.3,16-4.3c5.3,0,10.7,4.3,16,4.3c2.7,0,5.2-0.9,7.4-2.2c1.1-1.9,2.2-4,3.2-6.1
		c-2.8,2.1-6.4,3.5-10.6,3.5c-5.3,0-10.7-4.3-16-4.3c-5.3,0-10.7,4.3-16,4.3C228.7,211.7,223.4,207.5,218.1,207.5L218.1,207.5z
		 M234.1,143.3l-14.5,28.3l-9.4-12.2l-24.5,32.3c0.4,2,1,3.9,1.5,5.8c2.7,4.6,8,9.9,14.7,9.9c5.3,0,10.7-4.3,16-4.3
		c5.3,0,10.7,4.3,16,4.3c5.3,0,10.7-4.3,16-4.3c5.3,0,10.7,4.3,16,4.3c6.7,0,11.9-5.2,14.6-9.7c0.6-1.9,1.1-3.9,1.6-6l-24.4-32.3
		l-9.4,12.2L234.1,143.3z"/>

		<polyline style="clip-path:url(#SVGID_00000090269855333761690250000018235678648505071266_);fill-rule:evenodd;clip-rule:evenodd;fill:#FFE500;" points="
		210,100 222.1,100 216,110.5 	"/>

		<polyline style="clip-path:url(#SVGID_00000090269855333761690250000018235678648505071266_);fill-rule:evenodd;clip-rule:evenodd;fill:#FFE500;" points="
		210,107 222.1,107 216,96.5 	"/>

		<polyline style="clip-path:url(#SVGID_00000090269855333761690250000018235678648505071266_);fill-rule:evenodd;clip-rule:evenodd;fill:#FFE500;" points="
		246.1,100 258.2,100 252.1,110.5 	"/>

		<polyline style="clip-path:url(#SVGID_00000090269855333761690250000018235678648505071266_);fill-rule:evenodd;clip-rule:evenodd;fill:#FFE500;" points="
		246.1,107 258.2,107 252.1,96.5 	"/>

		<polyline style="clip-path:url(#SVGID_00000090269855333761690250000018235678648505071266_);fill-rule:evenodd;clip-rule:evenodd;fill:#FFE500;" points="
		228,124.2 240.1,124.2 234.1,134.7 	"/>

		<polyline style="clip-path:url(#SVGID_00000090269855333761690250000018235678648505071266_);fill-rule:evenodd;clip-rule:evenodd;fill:#FFE500;" points="
		228,131.2 240.2,131.2 234.1,120.7 	"/>

		<path style="clip-path:url(#SVGID_00000090269855333761690250000018235678648505071266_);fill-rule:evenodd;clip-rule:evenodd;fill:#FF0000;" d="
		M174.6,102.6c-1.6,0.7-3.1,1.3-4.6,2l5,77.5c3.4,40.5,29.8,64.1,59.2,73.4c29.3-9.3,55.7-32.9,59.2-73.4l4.9-77.3
		c-1.5-0.8-3-1.5-4.6-2.2l-4.6,76.9c-3.2,39.4-27.7,62.3-54.9,71.3c-27.2-9-51.7-31.9-54.9-71.3L174.6,102.6z M234.1,89.6
		c-1.1,0-2.3,0-3.4,0.1C231.8,89.7,232.9,89.6,234.1,89.6z"/>
</g>
</svg>
